<svg clip-rule="evenodd" fill-rule="evenodd" viewBox="0 0 268 227" xmlns="http://www.w3.org/2000/svg"><g fill-rule="nonzero"><path d="m133.717 212c46.944 0 85-38.056 85-85s-38.056-85-85-85-85 38.056-85 85 38.056 85 85 85z" fill="#f4f8ff"/><path d="m108.34 97.93c-.026 2.968 2.523 4.289 3.645 5.132 3.269-8.615 9.43-13.339 17.706-17.47s32.141-7.382 45.229-11.602c11.481-3.702 21.467-11.666 24.434-16.432 0-.003-1.177-5.956-2.551-9.873-1.305-3.717-2.841-7.089-3.976-8.783.49 1.577.451 6.662-3.624 14.392-5.094 9.662-16.043 12.7-26.378 15.313-10.336 2.612-31.116 6.438-42.068 12.724-10.953 6.286-12.384 12.889-12.417 16.599z" fill="#e4a110"/><path d="m92.538 74.08c5.028-.504 5.54-2.065 9.499-3.5l3 11.001c-3.39.781-5.507 2.08-15.999 2.501-12.5.501-15.5.499-22-5.422-6.673-6.078-13.494-14.031-16.5-17.08-1.444-1.464-5.126-2.877-5.143-6.818-.012-2.706 6.021-4.456 8.651-3.81 2.63.645 2.716 5.823 2.719 6.48s1.087 3.125 5.773 7.148c5.791 4.972 10 7.001 14 8.501s11 1.5 16 .999z" fill="#fdce9f"/><path d="m77.703 73.484c.003.051-.018.102-.05.154-.01.021-1.589 2.149-1.979 3.817-.029.133-.184.231-.334.198-.149-.024-.258-.16-.219-.294.41-1.76 1.999-3.908 2.063-3.992.086-.116.267-.154.396-.079.07.037.119.115.123.196z" fill="#d6aa9b"/><path d="m230.037 109.583-9.5 4.5 2.5 6.5 12.5-7.001z" fill="#baedea"/><path d="m123.216 210.756 2.82-11.174-7.905-1.546-1.595 13.547z" fill="#baedea"/><path d="m254.188 117.533-20.864-15.444c-3.205.63-5.477 6.046-6.076 7.85 0 0 2.701.696 4.533 2.382 1.833 1.687 3.019 3.759 3.019 3.759.927.235 2.615-.124 6.002.765 4.043 1.061 5.841 2.563 9.416 3.471 2.86.727 3.754-1.935 3.97-2.783z" fill="#02307b"/><path d="m128.037 131.08c5.5-17.5 6.333-25.167 5.5-28.5l13-1.5 12.5 17.5c-8.5 19.5-18 29-21.5 37-1.002 2.29-.5 1.5-1.5 13.5-.677 8.13-8 27-10.5 33h-8c.5-5.5 2.7-28.3 3.5-37.5 1-11.5.929-14.184 7-33.5z" fill="#fdce9f"/><path d="m171.037 102.58c-2.358-8.524-9.543-11.95-10.748-13.953l-20.418 12.49 3.03 7.603c9.033 24.957 33.4 41.737 38.238 42.406 3.871.536 33.386-22.452 45.169-32.336l-4.131-5.903s-14.261 3.876-20.993 6.107c-6.732 2.23-18.355 9.796-20.596 12.779-1.739-2.196-2.613-6.533-5.051-12.779-1.565-4.009-2.395-8.803-4.5-16.414z" fill="#fdce9f"/><path d="m124.037 141.58c5.5-17.5 10.333-35.667 9.5-39l13-1.5 12.5 17.5c-8.5 19.5-11.5 26.5-15 34.5z" fill="#f34949"/><path d="m154.037 130.58c1.2-2.4 1.833-5.334 2.5-6.5l-10-17-3.5 1s2.167 14 2.5 19.5 1.5 18.5 1.5 18.5 4.5-10.5 7-15.5z" fill="#b81b24"/><path d="m172.537 104.08c-1.735-8.672-11.043-13.45-12.248-15.453l-20.418 12.49 3.03 7.603c6.636 15.86 16.636 27.86 22.136 32.86l15-15c-4-6-5.5-12.5-7.5-22.5z" fill="#f34949"/></g><path d="m159.537 105.08c1.5 5.666 6.3 19.3 13.5 28.5" fill="none" stroke="#fff"/><path d="m139.001 100.578c.169.143.416.173.651.067l1.902-.864 1.406 1.298c.151.182.435.188.669.082l1.893-.871 1.397 1.289c.16.172.435.189.669.083l2.281-1.045c.334-.148.514-.551.404-.877-.118-.333-.487-.466-.821-.319l-1.893.872-1.397-1.29c-.16-.171-.435-.188-.669-.082l-1.893.871-1.406-1.298c-.16-.171-.435-.188-.669-.082l-2.281 1.045c-.334.148-.514.551-.405.877.022.107.088.181.162.244z" fill="#fff" fill-rule="nonzero"/><path d="m100.885 218.436 24.3-.165c2.029-2.29.647-7.659.069-9.358 0 0-2.563.893-4.832.7s-4.276-1.056-4.276-1.056c-.824.348-1.877 1.574-4.903 2.821-3.613 1.489-5.804 1.373-8.981 2.712-2.543 1.072-1.698 3.585-1.377 4.346z" fill="#02307b" fill-rule="nonzero"/><path d="m85.546 45.649c2.016 3.547 5.319 4.934 5.991 4.934l7.616-1.977c2.016-4.762 8.884-14.526 5.384-13.023-4.796 2.059-3.5-.003-12-.003-6.991-.001-9.511 5.636-6.991 10.069z" fill="#02307b" fill-rule="nonzero"/><path d="m160.538 72.078c3-7.999-2.78-18.093-3.501-18.998l-6.197-5.963c-10.315 3.776-30.737 7.253-25.285 10.482 7.925 4.694 10.972 15.894 16.982 19.982 6.011 4.088 14.269 4.449 18.001-5.503z" fill="#02307b" fill-rule="nonzero"/><path d="m88.037 43.673c-2.188-1.789-1.5-4.166-1-5 1.5-2.998 2.5-3.5 9.5-3.004 9.318.661 9.395-4.995 19-5.5 9.5-.499 10.5 1.001 20.5 6.501s12.5 1.503 23 2.503 16.299 11.502 14.5 17.5c-2.013 6.707-12.862 16.726-31.5 7.407-19-9.5-11-6.5-24-6.5-10.4 0-15.167-7.077-15.5-9.41 2-1.59 2-4.09 0-4.59-1.946-.487-2.985 1.427-3 2.593 0 0-6 2-11.5-2.5z" fill="#02307b" fill-rule="nonzero"/><path d="m103.537 65.08c5.353-5.687 4.5-6 9.5-7.5s7-3 8.5-4.5c2.5-2.5 3.5-4.5 3.5-8.5h15.5c0 12-2.5 15-3.5 17.5 8 12 14 16.999 18 19.999 4 3.001 16.5 11.002 21.5 13.002-4 3-7 5.998-17 9.498-9.217 3.226-22 2.5-29.5 1.5-2-7.499-7.5-11.999-11.5-15.999-4-4.001-10-8.001-10-8.001-3.5 2.334-12.5 4.001-12.5 4.001l-5-12c3-.5 4.5-.501 12.5-9z" fill="#e4cdff" fill-rule="nonzero"/><path d="m131.537 70.08c5 5.5 16.5 19.5 21 26.5l17-5c-2.333-1.334-9.309-5.248-16.5-11-7.5-6-12.333-13.167-16-18.5-2 5-5.5 8-5.5 8z" fill="#d0adff" fill-rule="nonzero"/><path d="m104.537 79.08 4 3" fill="none" stroke="#9f60f5" stroke-linecap="round" stroke-opacity=".5" stroke-width=".75"/><path d="m137.957 111.25c20.476-2.462 67.192-24.783 91.721-24.218 14.579.335 30.046 12.115 34.858 17.547l-4-18.999c-5.475-5.426-21.707-8.497-32.5-8.499-18.205-.002-42.513 3.604-78.306 17.94-28.634 11.469-39.09 4.215-40.738-.846-.596 1.784-1.272 6.479.797 10.986 2.587 5.635 7.692 8.55 28.168 6.089z" fill="#fcbb14" fill-rule="nonzero"/><path d="m96.037 86.08-5-12c1.2 0 2.833-.667 3.5-1l6 12z" fill="#d0adff" fill-rule="nonzero"/><path d="m140.538 44.58h-15.5c0 1.5 0 3-.5 4l16 .5z" fill="#d0adff" fill-rule="nonzero"/><path d="m89.922 49.322c-.763-2.381-2.133-2.026-2.653-7.231s5.098-4.404 5.098-4.404l7.817-1.753s4.594 2.518 6.328 6.778c2.857 7.051 9.021 6.331 7.822 19.158-2.602 7.807-7.822 1.04-7.822 1.04s-3.952-5.259-4.67-5.724c-.728-.462-4.348 2.921-6.226 2.784-1.196-.086-2.705-3.155-3.517-5.323-.472-1.25-.9-.079-1.707-.585-.774-.482 0-2.082-.47-4.74z" fill="#fdce9f" fill-rule="nonzero"/><path d="m88.037 43.673c-2.188-1.789-1.5-4.166-1-5 1.5-2.998 2.5-3.5 9.5-3.004 9.318.661 9.395-4.995 19-5.5l-1 26.911c-8 0-11.667-6.577-12-8.91 2-1.59 2-4.09 0-4.59-1.946-.487-2.985 1.427-3 2.593 0 0-6 2-11.5-2.5z" fill="#02307b" fill-rule="nonzero"/><path d="m106.468 16.639c-2.126-2.212-2.757-5.547-4.923-6.713-3.252-1.754-4.606-1.096-6.438-.293-1.831.804-3.499 2.564-1.262 4.151 2.238 1.587 1.842 2.148 3.521 3.338 1.679 1.191 3.673 1.345 3.673 1.345l21.91 17.273 2.384 8.84h11.203l-4-11.5s-1.104-5.082-7.203-8.143c-8.512-4.273-16.739-6.085-18.865-8.298z" fill="#fdce9f" fill-rule="nonzero"/></svg>