<svg clip-rule="evenodd" fill-rule="evenodd" stroke-linejoin="round" stroke-miterlimit="2" viewBox="0 0 220 181" xmlns="http://www.w3.org/2000/svg"><g fill-rule="nonzero"><path d="m110.18 181c46.944 0 85-38.056 85-85s-38.056-85-85-85c-46.945 0-85 38.056-85 85s38.055 85 85 85z" fill="#f4f8ff"/><path d="m130.278 40.323c-.334-.492-2.366-3.166-2.78-3.631-.468-.506-.883-1.064-1.203-1.69-.655-1.276-.829-2.806-.214-4.123.561-1.237 1.711-2.208 1.898-3.618.227-1.662-.963-3.085-1.644-4.495-.348-.718-.629-1.477-.508-2.288.16-.984.695-1.849 1.002-2.78.829-2.434.415-5.48-.347-7.9-.522-1.65-1.337-3.206-2.447-4.549-1.056-1.29-2.366-2.368-3.823-3.179-.869-.492-1.791-.878-2.74-1.197-.294-.093-3.382-.851-3.382-.785l-1.645 37.761c2.794.04 5.588.066 8.395.106 1.698.027 3.677.452 5.374.479.909.013 3.195 2.088 4.064 1.889z" fill="#02307b"/><path d="m127 40.238c0 1.78-7.829 14.772-17.5 14.772-9.657 0-17.5-12.992-17.5-14.772s7.829-3.228 17.5-3.228c9.658 0 17.5 1.448 17.5 3.228z" fill="#fdce9f"/><path d="m111.13 141.186 51.87-19.618s-5.255-4.317-13.716-5.247c-8.035-.89-15.272-8.209-16.51-15.209-.106-.624-.625-1.102-1.263-1.102h-44.022c-.638 0-1.144.478-1.264 1.102-1.237 7-8.487 14.319-16.509 15.209-8.448.943-13.716 5.247-13.716 5.247l52.961 19.645v.797l1.064-.399 1.091.399v-.824z" fill="#a8cbff"/><path d="m214.859 102.572c-3.358 1.373-13.977-2.829-13.977-2.829s-22.939 13.374-35.779 19.071c-12.84 5.71-14.538-1.522-14.538-1.522l-18.565-50.195 12.84-6.087 15.863 43.542 40.553-13.105s5.029-3.771 8.908-1.67c3.879 2.088 1.819 3.448.522 3.219-1.311-.215-3.719-.741-4-.148 0 0 2.635 1.104 2.996 2.451 0 0 2.635 1.104 3.063.498s-.829-1.535-.602-2.127c.228-.593.589-.755 1.539-.176.949.579 2.019 2.451 1.524 3.354 0 0 3.21-1.576 3.732-1.818.816-.377 1.337 1.346.147 2.141s-1.979 1.306-1.979 1.306c0 .001 2.608-.592 2.835.108.241.62-.04 1.926-5.082 3.987z" fill="#fdce9f"/><path d="m155.037 107.04s2.767-2.009 5.026-2.567z" fill="#fbc7b6"/><path d="m155.037 107.372c-.107 0-.201-.053-.268-.133-.107-.146-.08-.359.08-.465.121-.08 2.848-2.049 5.147-2.621.174-.053.361.067.401.24s-.067.359-.24.399c-2.179.545-4.893 2.5-4.92 2.514-.067.053-.134.066-.2.066z" fill="#d6aa9b"/><path d="m5.149 102.572c3.357 1.373 13.976-2.829 13.976-2.829s22.936 13.374 35.775 19.071c12.839 5.71 14.537-1.522 14.537-1.522l18.563-50.195-12.839-6.087-15.861 43.542-40.549-13.105s-5.029-3.771-8.907-1.67c-3.879 2.101-1.819 3.448-.522 3.219 1.311-.215 3.718-.741 3.999-.148 0 0-2.635 1.104-2.996 2.451 0 0-2.635 1.104-3.063.498s.83-1.535.602-2.127c-.227-.593-.588-.755-1.538-.176-.949.579-2.019 2.451-1.524 3.354 0 0-3.21-1.576-3.732-1.818-.815-.377-1.337 1.346-.147 2.141 1.191.795 1.98 1.306 1.98 1.306 0 .001-2.622-.619-2.849.081-.227.647.053 1.953 5.095 4.014z" fill="#fdce9f"/><path d="m64.964 107.04s-2.767-2.009-5.026-2.567z" fill="#fbc7b6"/><path d="m64.963 107.372c-.067 0-.134-.026-.2-.066-.027-.014-2.741-1.969-4.92-2.514-.174-.04-.294-.226-.24-.399.04-.173.227-.293.401-.24 2.299.572 5.039 2.541 5.146 2.621.147.106.188.319.081.465-.054.08-.161.133-.268.133z" fill="#d6aa9b"/><path d="m123.214 37.01c-.472 4.29-6.432 13.651-13.714 13.651s-13.242-9.374-13.714-13.651c-9.439 1.893-20.806 7.693-23.786 24.31l13.7 6.726 1.335 31.964h44.93l1.335-31.964 13.7-6.726c-2.98-16.617-14.334-22.417-23.786-24.31z" fill="#f34949"/><path d="m61 119.01 50.334 12.746 41.666-10.67-33.427 19.924s-46.26-4.4-47.008-4.923c-.748-.522-11.565-17.077-11.565-17.077z" fill="#659df2"/><path d="m123.042 16.75c-.093-2.895.687-5.523.687-5.523l-7.655-6.217-8.91 1.134s-3.9 4.536-4.125 9.859c-.357 8.806 1.864 25.096 1.89 26.483 2.076 7.578 11.212.574 11.212.574s.145-11.954.727-12.741c.595-.787 2.247 1.147 4.178.267 1.229-.561 1.665-4.497 1.705-7.178.026-1.548.397-.307 1.058-1.174.634-.827-.49-2.615-.767-5.484z" fill="#fdce9f"/><path d="m86.041 139.023-4.041 20.987s15.156-3.948 43.964-5.181 53.576-1.732 62.167-18.023c8.592-16.29-13.639-25.918-42.205-12.342-28.567 13.575-59.885 14.559-59.885 14.559z" fill="#96c0ff"/><path d="m83.693 155.746s-13.89 2.668-18.582 5.714-13.319 6.469-14.076 5.323c-.745-1.145 10.7-9.514 12.946-16.927 2.247-7.426 6.939-3.612 10.886-3.989 3.935-.377 13.133-2.857 13.133-2.857z" fill="#f8bf86"/><path d="m86.039 139.01-4.039 21s15.15-3.951 43.948-5.185c28.798-1.246-39.909-15.815-39.909-15.815z" fill="#659df2"/><path d="m137.307 155.746s13.89 2.668 18.582 5.714 13.319 6.469 14.076 5.323c.745-1.145-10.7-9.514-12.946-16.927-2.247-7.426-6.939-3.612-10.886-3.989-3.935-.377-13.133-2.857-13.133-2.857z" fill="#fdce9f"/><path d="m133.959 138.524 4.041 21.486s-15.156-4.042-43.964-5.305c-28.808-1.262-53.576-1.772-62.167-18.451-8.592-16.679 13.639-26.536 42.205-12.637 28.567 13.899 59.885 14.907 59.885 14.907z" fill="#a8cbff"/><path d="m132.739 68.349c-.134 0-.268-.08-.308-.213l-3.114-8.353c-.067-.173.026-.359.2-.426.174-.066.361.027.428.2l3.115 8.353c.066.173-.027.359-.201.425-.053 0-.093.014-.12.014z" fill="#b81b24"/><path d="m86.218 68.348c-.041 0-.081 0-.121-.026-.174-.067-.267-.253-.2-.426l3.114-8.353c.067-.173.254-.266.428-.199.174.066.268.252.201.425l-3.115 8.353c-.053.147-.174.226-.308.226z" fill="#b81b24"/><g fill="#fff"><path d="m92.706 78.01c-.351 0-.66-.261-.702-.618-.042-.37.239-.713.632-.754l2.162-.22.73-2.002c.084-.247.323-.426.589-.453l2.176-.219.73-2.017c.084-.247.323-.425.59-.453l2.611-.26c.393-.041.73.233.772.617.042.37-.239.713-.632.755l-2.176.219-.73 2.016c-.084.247-.323.426-.589.453l-2.176.22-.73 2.002c-.084.247-.323.426-.59.453l-2.611.261z"/><path d="m121.834 90.01c-.041 0-.082 0-.123-.013-.367-.063-.612-.39-.544-.743l.395-1.925-1.702-1.159c-.217-.138-.313-.39-.272-.629l.395-1.926-1.702-1.146c-.217-.138-.313-.39-.272-.629l.477-2.316c.068-.34.422-.567.789-.504.368.063.613.391.544.73l-.394 1.926 1.715 1.159c.217.138.313.39.272.629l-.395 1.926 1.702 1.158c.217.138.313.39.272.629l-.477 2.317c-.081.302-.367.516-.68.516z"/><path d="m121.331 67.01c-.186 0-.372-.084-.505-.238l-1.345-1.654-1.996.575c-.253.07-.506-.014-.679-.224l-1.344-1.654-1.997.575c-.239.07-.519-.014-.678-.224l-1.624-1.99c-.24-.294-.213-.742.066-.995.28-.252.706-.224.945.07l1.345 1.654 1.996-.575c.253-.07.519.014.679.224l1.344 1.654 1.997-.575c.252-.07.519.014.678.224l1.624 1.99c.24.294.213.742-.066.995-.134.112-.28.168-.44.168z"/><path d="m109.391 94.01c-.221 0-.429-.137-.54-.37l-.894-1.888-1.912.082c-.233.042-.453-.136-.563-.369l-.883-1.888-1.899.082c-.233.027-.453-.137-.564-.369l-1.066-2.271c-.159-.329-.037-.753.258-.931.306-.178.674-.041.833.288l.882 1.888 1.899-.082c.233-.028.454.136.564.369l.882 1.888 1.912-.082c.233-.028.453.137.564.369l1.066 2.271c.159.329.037.753-.258.931-.085.068-.183.082-.281.082z"/><path d="m129.92 51.01c-.094 0-.201-.024-.295-.06l-2.249-.977c-.335-.143-.469-.5-.308-.798.16-.298.562-.417.897-.274l1.861.81 1.621-1.156c.201-.142.482-.166.709-.071l1.875.81 1.634-1.156c.201-.143.482-.166.71-.071l2.249.977c.335.143.469.5.308.798-.16.298-.562.417-.897.274l-1.875-.81-1.633 1.156c-.201.143-.482.166-.71.071l-1.875-.81-1.62 1.156c-.107.083-.255.131-.402.131z"/><path d="m80.92 58.01c-.094 0-.201-.024-.294-.06l-2.25-.977c-.335-.143-.469-.5-.308-.798.16-.298.562-.417.897-.274l1.861.81 1.621-1.156c.2-.142.482-.166.709-.071l1.875.81 1.634-1.156c.201-.143.482-.166.709-.071l2.25.977c.335.143.469.5.308.798s-.562.417-.897.274l-1.875-.81-1.633 1.156c-.201.143-.483.166-.71.071l-1.875-.81-1.62 1.156c-.107.083-.255.131-.402.131z"/></g><path d="m81.873 43.21c2.486-3.658 8.195-5.453 9.892-7.621 1.35-1.73-.107-4.243.201-6.225.428-2.807 3.409-4.363 4.625-6.943 1.524-3.219.842-5.906 1.136-9.231.281-3.152 1.591-6.225 3.743-8.552 2.901-3.153 7.273-4.775 11.564-4.629 10.266.373 10.895 11.133 10.895 11.133-8.409 1.849-10.187-5.081-10.187-5.081.482 1.942.281 4.669-1.163 6.198-.628.665-1.47 1.064-2.326 1.397-.775.292-1.604.545-2.433.439-.681-.08-1.43-.333-1.871.385-.187.306-.241.665-.241 1.011-.013.705.187 1.437.682 1.929 1.043 1.011 3.061.585 3.796 1.968.923 1.729-.508 4.296-1.39 5.746-.374.612-.775 1.25-.869 1.969-.214 1.702 1.19 3.285 1.417 4.948.147 1.117-.147 2.38-1.069 3.032-.455.319-1.016.479-1.457.811-.535.399-.923 1.078-.843 1.743 3.663 33.664-18.407 23.715-21.241 20.709-6.363-6.717-5.882-10.707-2.861-15.136z" fill="#02307b"/></g></svg>