<svg clip-rule="evenodd" fill-rule="evenodd" viewBox="0 0 239 186" xmlns="http://www.w3.org/2000/svg"><g fill-rule="nonzero"><path d="m117.18 178c46.944 0 85-38.056 85-85s-38.056-85-85-85c-46.945 0-85 38.056-85 85s38.055 85 85 85z" fill="#f4f8ff"/><path d="m106.432 134.849c-38.501-10.691-65.908-64.741-71.867-97.517 17.878 28.009 65.134 42.365 107.436 37.67 42.302-4.694 73.131-44.223 91.605-73.421-6.268 21.466-10.577 73.504-29.796 98.923-24.025 31.774-58.876 45.036-97.378 34.345z" fill="#a9e1a5"/><path d="m152.409 118.404c49.285-24.951 71.312-91.339 81.591-117.903-10 44.001-14.453 91.903-43.528 114.895-29.075 22.993-59.8 31.728-96.091 15.6-29.032-12.903-49.09-51.353-60.413-94.26 17.878 39.331 69.156 106.62 118.441 81.668z" fill="#fff"/><path d="m101.5 37.001-1.5 11 13 33.5 8-2z" fill="#b7babe"/><path d="m104.5 36.501-3.5 12 11 31.5 11-1.5z" fill="#fff"/><path d="m108 37.001-7 11.5 11 31.5 11-1.5z" fill="#fff"/><path d="m123 40.001-21 8.5 12 30.5 21.5-6z" fill="#fff"/><path d="m125.5 41.501-24.5 7 13 32.5 21.5-6z" fill="#fff"/><path d="m127.5 43.001-21 5 12 35.5 20.5-5z" fill="#787878"/><path d="m99.999 47.985s1.257.518 3.001.518c1.743 0 3.513-.519 3.513-.519l11.486 33.224-6.5.792z" fill="#3a3a3a"/><path d="m29.201 131.489-10.201 8.512 8 4.499 8-8.499z" fill="#a8cbff"/><path d="m.688 145.262 28.279 6.49c2.986-2.102 2.857-8.72 2.653-10.853 0 0-3.224.333-5.807-.515-2.583-.849-4.678-2.403-4.678-2.403-1.052.177-2.613 1.312-6.472 1.929-4.607.737-7.121 0-11.181.682-3.248.546-2.958 3.698-2.794 4.67z" fill="#02307b"/><path d="m31.934 174.931 32.608-9.052c1.923-3.799-1.82-10.477-3.194-12.54 0 0-2.881 2.217-6.084 2.747-3.203.531-6.284.088-6.284.088-.986.764-1.971 2.786-5.601 5.554-4.333 3.304-7.319 3.945-11.12 6.891-3.041 2.357-1.023 5.411-.325 6.312z" fill="#02307b"/><path d="m54.499 141.301-6.5 16.999 11-2 3-10z" fill="#a8cbff"/></g><path d="m154.381 27.748c.175.849.07 1.654-.22 2.263s-.746.998-1.274 1.107c-.529.109-1.101-.067-1.608-.512-.508-.444-.924-1.141-1.099-1.99-.176-.849-.07-1.653.22-2.263.29-.609.746-.997 1.274-1.107.528-.109 1.101.067 1.608.512.508.445.924 1.141 1.099 1.99z" fill="none" stroke="#787878"/><path d="m153.225 27.597c-.773-2.994-.732-6.487-.732-6.487l5.615-5.49 9.478-1.514s5.924.726 7.75 6.111c3.007 8.913-.411 10.864 6.809 20.272.143 8.385-14.322 15.463-14.322 15.463s-2.108-13.537-2.94-14.169c0 0-1.961 1.85-4.205 1.527-1.429-.204-2.819-1.078-4.242-3.803-1.422-2.725-.869-5.53-2.979-5.945-2.109-.416.343-2.944-.232-5.966z" fill="#fdce9f" fill-rule="nonzero"/><path d="m161.497 122.55-23.241-33.373 25.029-45.29c0 .794 1.43 2.264 7.151 1.788 5.721-.477 8.74-4.966 9.535-7.152.795.398 3.695 1.907 8.939 4.768 6.555 3.576 11.919 8.343 13.11 11.919 1.265 3.792 0 17.282-13.11 37.543-9.845 15.215-21.652 27.016-27.413 29.797z" fill="#ec930d" fill-rule="nonzero"/><path d="m146.6 15.881c0-2.384 2.383-3.576 7.747-3.577 6.662-.002 8.939-7.153 17.878-2.385 6.733 3.591 8.343 9.537 6.555 14.901-1.43 4.29-.993 7.35-.596 8.343-.397.397-1.788.953-4.172 0-2.979-1.192-1.787-2.98-.596-4.768 1.192-1.787 1.192-5.363-2.383-4.767-3.576.596-1.788 9.532-1.788 16.087s0 6.558-1.788 8.346-13.11 4.172-12.514.596-1.192-2.384-2.384-4.171c-.954-1.431.993-7.353 1.788-10.134 3.575-1.192 2.979.599 7.747 4.174 4.767 3.576 2.979-1.155 2.979-5.959 0-4.77 1.391-7.151 1.788-8.343-2.383-3.576 1.192-6.555-1.788-8.343-2.979-1.788-10.13 6.555-13.706 5.363-2.86-.953-1.986-2.384-1.192-2.979-.993.595-3.575 0-3.575-2.384z" fill="#02307b" fill-rule="nonzero"/><path d="m137 57.503c2.411 2.897.973 2 6.698 5.66l-3.276 9.879c-.451-.557-2.955-3.316-5.922-3.042-3.61.333-9.457 3.042-12.5 0-2.5-2.499-6.73-6.838-2.5-6.839 6.5-.001 15.336-1.15 12-7.159-2.5-4.502 3-1.504 5.5 1.501z" fill="#fdce9f" fill-rule="nonzero"/><path d="m138.641 73.214 3.945 3.825 5.001-10.636-5.185-4.309z" fill="#fff" fill-rule="nonzero"/><path d="m166.779 87.739c5.445-10.282 13.257-20.367 19.151-26.382 0 0 4.833-10.993 10.727-2.572 5.895 8.421 0 20.262 0 20.262-7.151 13.11-24.498 31.321-30.392 28.614-4.192-1.925-13.111-12.514-23.242-26.221l6.556-9.535c3.274 2.397 10.13 9.128 17.2 15.834z" fill="#b77108" fill-opacity=".65" fill-rule="nonzero"/><path d="m167.375 84.006c5.446-10.282 13.258-20.367 19.152-26.382 0 0 8.408-12.623 14.302-4.202 5.895 8.421-2.979 21.484-2.979 21.484-8.533 12.427-25.094 29.534-30.989 26.827-4.191-1.925-14.898-12.541-25.625-26.247l4.768-10.727c3.275 2.397 14.302 12.541 21.371 19.247z" fill="#ec930d" fill-rule="nonzero"/><path d="m186.526 57.607c-5.894 6.016-13.706 16.101-19.151 26.383-5.763-5.468-9.405-9.257-12.328-11.77-.788-.521-1.432-1.056-1.893-1.516.605.443 1.231.947 1.893 1.516 2.615 1.726 6.823 3.295 11.218 1.464 5.721-2.384 15.891-11.711 20.261-16.077z" fill="#b77108" fill-opacity=".5" fill-rule="nonzero"/><path d="m159.017 27.469c.135 1.067-.039 2.048-.405 2.768-.368.724-.898 1.136-1.468 1.209-.57.072-1.186-.195-1.723-.803-.535-.606-.95-1.512-1.085-2.579-.136-1.067.039-2.049.405-2.769.367-.723.897-1.136 1.467-1.209.57-.072 1.187.195 1.724.803.534.606.949 1.513 1.085 2.58z" fill="none" stroke="#787878"/><path d="m158.518 25.413 9.534-2.384" fill="none" stroke="#787878" stroke-linecap="round"/><path d="m86 106c9.058 10.488 34.239 16.712 40 18.5l11.064-32.938c-13.905-5.562-43.384-16.567-50.058-16.09-6.675.477-42.311 38.536-60.785 57.804 3.814 3.337 10.528 5.166 14.898 5.365 20.977-15.256 34.881-23.141 44.881-32.641z" fill="#02307b" fill-rule="nonzero"/><path d="m132 134.503c16.209 3.814 25.723-9.569 28.305-13.741l-22.049-31.584c-.596 0-.715 0-15.494-9.535-18.474-11.919-33.372-18.449-40.524-19.641-7.151-1.192-10.354-.557-12.738 5.998-1.907 5.244-11.246 56.659-18 79.503 1.43 1.907 6.5 4 12 4 2.98-4.569 10.302-17.605 16.5-30s9.205-21.931 10-26.5c6.754 11.323 25.791 37.686 42 41.5z" fill="#0b51ae" fill-rule="nonzero"/><path d="m154.941 108.248c51.188-20.769 68.78-81.182 79.059-107.746-10.096 38.483-14.825 96.075-43.9 119.068-29.075 22.992-59.425 27.589-95.717 11.465-14.531-6.456-8.383-25.032-8.383-25.032-.001 0 34.814 16.091 68.941 2.245z" fill="#fff" fill-rule="nonzero"/></svg>